# xmcd
#
# Track frame offsets: 
#        150
#        10959
#        21674
#        32718
#        42363
#        52178
#        63447
#        73810
#        84837
#        95515
#        107247
#        118025
#        130464
#        139505
#        149149
#        157610
#        170218
#        179973
#        191376
#        200812
#        211503
#        226539
#
# Disc length: 3179 seconds
#
# Revision: 0
# Processed by: cddbd v1.5.2PL0 Copyright (c) Steve Scherf et al.
# Submitted via: ExactAudioCopy v1.0b3
#
DISCID=480c6916
DTITLE=Sonny James - CD4_The Sonny Side1959 - Singles'60-62
DYEAR=2015
DGENRE=Country
TTITLE0=Action Speaks Louder Than Words
TTITLE1=Kathleen 
TTITLE2=Dear Love 
TTITLE3=Are You Mine
TTITLE4=Uh-Huh-Mm 
TTITLE5=Young Love
TTITLE6=Walk To The Dance 
TTITLE7=First Date, First Kiss, First Love 
TTITLE8=Lovesick Blues 
TTITLE9=I Can See It In Your Eyes
TTITLE10=Why Can't They Remember
TTITLE11=Speak To Me 
TTITLE12=A Mighty Loveable Man
TTITLE13=Wonderin' 
TTITLE14=Bimbo 
TTITLE15=Apache 
TTITLE16=Innocent Angel 
TTITLE17=Young Love 
TTITLE18=The Day's Not Over Yet 
TTITLE19=Just One More Lie 
TTITLE20=On The Longest Day 
TTITLE21=The Only Cure 
EXTD=
EXTT0=
EXTT1=
EXTT2=
EXTT3=
EXTT4=
EXTT5=
EXTT6=
EXTT7=
EXTT8=
EXTT9=
EXTT10=
EXTT11=
EXTT12=
EXTT13=
EXTT14=
EXTT15=
EXTT16=
EXTT17=
EXTT18=
EXTT19=
EXTT20=
EXTT21=
PLAYORDER=
